<svg width="24" height="28" viewBox="0 0 24 28" fill="none" xmlns="http://www.w3.org/2000/svg">
<path d="M23.875 13.9999C23.8759 14.3607 23.7834 14.7155 23.6065 15.0299C23.4296 15.3444 23.1744 15.6077 22.8656 15.7942L3.73 27.5003C3.40738 27.6979 3.03787 27.8057 2.65963 27.8127C2.2814 27.8197 1.90815 27.7256 1.57844 27.5402C1.25186 27.3576 0.97982 27.0913 0.79028 26.7687C0.60074 26.4461 0.500546 26.0788 0.5 25.7047V2.29516C0.500546 1.92101 0.60074 1.55376 0.79028 1.23117C0.97982 0.908574 1.25186 0.64229 1.57844 0.459696C1.90815 0.274222 2.2814 0.180128 2.65963 0.187132C3.03787 0.194136 3.40738 0.301985 3.73 0.49954L22.8656 12.2056C23.1744 12.3922 23.4296 12.6555 23.6065 12.9699C23.7834 13.2843 23.8759 13.6392 23.875 13.9999Z" fill="white"/>
</svg>
