<svg width="20" height="20" viewBox="0 0 20 20" fill="none" xmlns="http://www.w3.org/2000/svg">
<path d="M-0.000312805 0.999978L-0.000312805 19C-0.000392914 19.1705 0.0431118 19.3381 0.126066 19.4871C0.209021 19.636 0.328672 19.7612 0.473656 19.8509C0.618639 19.9406 0.784142 19.9917 0.954443 19.9994C1.12474 20.0071 1.29419 19.9712 1.44669 19.895L19.4467 10.895C19.6017 10.8026 19.73 10.6715 19.8191 10.5146C19.9082 10.3577 19.9551 10.1804 19.9551 9.99998C19.9551 9.81955 19.9082 9.64221 19.8191 9.48532C19.73 9.32843 19.6017 9.19738 19.4467 9.10498L1.44669 0.104978C1.29419 0.0287753 1.12474 -0.00717704 0.954443 0.000535877C0.784142 0.00824879 0.618639 0.0593708 0.473656 0.149046C0.328672 0.238722 0.209021 0.363973 0.126066 0.512905C0.0431118 0.661836 -0.000392914 0.829502 -0.000312805 0.999978ZM16.7637 9.99998L1.99969 17.382L1.99969 2.61798L16.7637 9.99998Z" fill="white"/>
</svg>
